<mxfile host="app.diagrams.net" modified="2023-03-22T21:14:08.337Z" agent="5.0 (X11; Linux x86_64) AppleWebKit/537.36 (KHTML, like Gecko) Chrome/111.0.0.0 Safari/537.36" etag="IF7i8qXhD1tzkM_wNQYg" version="21.0.6" type="github">
  <diagram name="PÃ¡gina-1" id="wn3Ue3ekF79Besxl5Zfy">
    <mxGraphModel dx="1391" dy="778" grid="1" gridSize="10" guides="1" tooltips="1" connect="1" arrows="1" fold="1" page="1" pageScale="1" pageWidth="827" pageHeight="1169" math="0" shadow="0">
      <root>
        <mxCell id="0" />
        <mxCell id="1" parent="0" />
        <mxCell id="H27ZSIzB-EbjMpHel2KF-2" value="Gerenciar Ordem de Compra" style="ellipse;whiteSpace=wrap;html=1;" vertex="1" parent="1">
          <mxGeometry x="150" y="420" width="120" height="80" as="geometry" />
        </mxCell>
        <mxCell id="H27ZSIzB-EbjMpHel2KF-3" value="" style="ellipse;whiteSpace=wrap;html=1;" vertex="1" parent="1">
          <mxGeometry x="630" y="280" width="120" height="80" as="geometry" />
        </mxCell>
        <mxCell id="H27ZSIzB-EbjMpHel2KF-4" value="Simular Opcoes de negocio" style="ellipse;whiteSpace=wrap;html=1;" vertex="1" parent="1">
          <mxGeometry x="300" y="505" width="120" height="80" as="geometry" />
        </mxCell>
        <mxCell id="H27ZSIzB-EbjMpHel2KF-5" value="Gerenciar Perfil" style="ellipse;whiteSpace=wrap;html=1;" vertex="1" parent="1">
          <mxGeometry x="300" y="70" width="120" height="80" as="geometry" />
        </mxCell>
        <mxCell id="H27ZSIzB-EbjMpHel2KF-16" style="edgeStyle=orthogonalEdgeStyle;rounded=0;orthogonalLoop=1;jettySize=auto;html=1;exitX=0.5;exitY=1;exitDx=0;exitDy=0;" edge="1" parent="1" source="H27ZSIzB-EbjMpHel2KF-6" target="H27ZSIzB-EbjMpHel2KF-2">
          <mxGeometry relative="1" as="geometry" />
        </mxCell>
        <mxCell id="H27ZSIzB-EbjMpHel2KF-17" style="edgeStyle=orthogonalEdgeStyle;rounded=0;orthogonalLoop=1;jettySize=auto;html=1;exitX=0.5;exitY=0;exitDx=0;exitDy=0;entryX=0.5;entryY=0;entryDx=0;entryDy=0;" edge="1" parent="1" source="H27ZSIzB-EbjMpHel2KF-4" target="H27ZSIzB-EbjMpHel2KF-7">
          <mxGeometry relative="1" as="geometry">
            <Array as="points">
              <mxPoint x="360" y="355" />
              <mxPoint x="510" y="355" />
            </Array>
          </mxGeometry>
        </mxCell>
        <mxCell id="H27ZSIzB-EbjMpHel2KF-6" value="Gerenciar Carteira" style="ellipse;whiteSpace=wrap;html=1;" vertex="1" parent="1">
          <mxGeometry x="300" y="210" width="120" height="80" as="geometry" />
        </mxCell>
        <mxCell id="H27ZSIzB-EbjMpHel2KF-7" value="Gerenciar Ordem de Venda" style="ellipse;whiteSpace=wrap;html=1;" vertex="1" parent="1">
          <mxGeometry x="450" y="420" width="120" height="80" as="geometry" />
        </mxCell>
        <mxCell id="H27ZSIzB-EbjMpHel2KF-13" style="edgeStyle=orthogonalEdgeStyle;rounded=0;orthogonalLoop=1;jettySize=auto;html=1;exitX=0.5;exitY=0.5;exitDx=0;exitDy=0;exitPerimeter=0;entryX=0;entryY=0.5;entryDx=0;entryDy=0;" edge="1" parent="1" source="H27ZSIzB-EbjMpHel2KF-9" target="H27ZSIzB-EbjMpHel2KF-6">
          <mxGeometry relative="1" as="geometry" />
        </mxCell>
        <mxCell id="H27ZSIzB-EbjMpHel2KF-14" style="edgeStyle=orthogonalEdgeStyle;rounded=0;orthogonalLoop=1;jettySize=auto;html=1;exitX=0.5;exitY=0.5;exitDx=0;exitDy=0;exitPerimeter=0;entryX=0;entryY=0.5;entryDx=0;entryDy=0;" edge="1" parent="1" source="H27ZSIzB-EbjMpHel2KF-9" target="H27ZSIzB-EbjMpHel2KF-5">
          <mxGeometry relative="1" as="geometry" />
        </mxCell>
        <mxCell id="H27ZSIzB-EbjMpHel2KF-9" value="Usuario&lt;br&gt;" style="shape=umlActor;verticalLabelPosition=bottom;verticalAlign=top;html=1;outlineConnect=0;" vertex="1" parent="1">
          <mxGeometry x="110" y="80" width="30" height="60" as="geometry" />
        </mxCell>
        <mxCell id="H27ZSIzB-EbjMpHel2KF-19" value="&amp;lt;&amp;lt; extend &amp;gt;&amp;gt;" style="text;html=1;strokeColor=none;fillColor=none;align=center;verticalAlign=middle;whiteSpace=wrap;rounded=0;" vertex="1" parent="1">
          <mxGeometry x="240" y="330" width="80" height="30" as="geometry" />
        </mxCell>
        <mxCell id="H27ZSIzB-EbjMpHel2KF-20" value="&amp;lt;&amp;lt; extend &amp;gt;&amp;gt;" style="text;html=1;strokeColor=none;fillColor=none;align=center;verticalAlign=middle;whiteSpace=wrap;rounded=0;" vertex="1" parent="1">
          <mxGeometry x="420" y="330" width="80" height="30" as="geometry" />
        </mxCell>
        <mxCell id="H27ZSIzB-EbjMpHel2KF-21" value="&amp;lt;&amp;lt; extend &amp;gt;&amp;gt;" style="text;html=1;strokeColor=none;fillColor=none;align=center;verticalAlign=middle;whiteSpace=wrap;rounded=0;rotation=-90;" vertex="1" parent="1">
          <mxGeometry x="300" y="410" width="80" height="30" as="geometry" />
        </mxCell>
      </root>
    </mxGraphModel>
  </diagram>
</mxfile>
